<svg width="100%" height="100%" viewBox="0 0 50 50" version="1.1" xmlns="http://www.w3.org/2000/svg" xmlns:xlink="http://www.w3.org/1999/xlink" xml:space="preserve" style="fill-rule:evenodd;clip-rule:evenodd;stroke-linejoin:round;stroke-miterlimit:1.41421;">
    <g transform="matrix(1,0,0,1,-23.112,-19.0924)">
      <g transform="matrix(1.06383,0,0,1.06383,20.9843,15.9009)">
          <circle cx="25.5" cy="26.5" r="23.5" fill="#FFF"/>
      </g>
        <g id="path4150" transform="matrix(0.0781624,0,0,0.0781624,18.3643,-8.98317)">
            <path d="M99.808,742.542C100.226,742.149 98.409,743.993 100.532,740.981C102.101,738.756 99.224,741.578 101.367,739.9C105.033,737.03 110.239,727.925 114.136,725.377C126.959,716.993 155.305,699.77 155.305,699.77L239.213,643.926C239.213,643.926 280.584,616.839 305.754,598.586C315.791,591.307 327.726,583.889 337.713,576.541C367.96,554.04 398.952,531.153 427.624,506.658C438.211,497.613 444.475,493.53 454.205,484.628C454.836,484.039 464.468,477.12 466.096,475.455C467.091,474.438 468.057,473.38 468.889,472.224C469.043,472.009 469.18,471.254 468.989,471.437C463.144,477.01 474.327,469.822 462.064,476.664C464.017,475.612 469.722,472.211 467.924,473.509C464.2,476.198 460.15,478.405 456.263,480.852C451.67,483.992 446.989,487.009 442.482,490.271C424.272,503.455 407.828,517.952 391.016,532.828C363.84,557.501 340.008,583.658 316.341,611.73C300.746,630.228 292.856,638.372 278.203,657.496C250.977,694.144 227.634,733.414 205.917,773.507C198.388,788.187 190.787,802.918 184.862,818.339C183.098,823.2 181.7,828.172 180.555,833.212C179.42,838.847 178.282,844.428 176.497,849.898C175.281,853.034 174.237,856.292 172.268,859.05C170.661,861.448 168.516,863.149 166.083,864.638C159.972,867.699 152.824,874.252 145.07,875.465C144.633,875.533 144.195,875.661 143.753,875.629C143.222,875.59 142.718,875.38 142.2,875.256C137.669,872.837 135.23,868.112 132.411,864.048C130.321,861.035 128.246,858.01 126.08,855.051C123.286,851.236 120.383,847.502 117.534,843.727C103.452,825.77 87.423,809.504 70.87,793.846C67.29,790.724 68.928,792.075 65.999,789.74L81.393,780.231C83.879,782.94 82.481,781.394 85.563,784.887C100.381,802.06 116.149,818.403 130.524,835.965C153.077,862.669 128.076,833.195 147.121,855.315C149.983,858.638 152.717,863.234 157.156,864.642C164.273,864.329 176.573,854.868 148.99,871.235C151.358,869.834 153.871,868.676 155.366,866.246C157.696,863.786 158.814,860.636 160.152,857.56C160.527,856.509 161.612,853.515 161.912,852.495C163.016,848.743 163.384,844.818 164.362,841.035C165.425,835.793 166.61,830.599 168.879,825.721C175.661,809.808 184.306,794.724 192.48,779.509C215.829,739.285 239.031,696.473 266.677,659.019C280.283,641.297 287.366,633.394 301.716,616.217C325.068,588.266 349.606,562.244 376.379,537.572C390.954,524.413 397.073,518.44 411.955,506.301C431.132,490.656 453.716,477.941 475.373,465.956C477.714,464.744 482.139,460.912 485.482,463.418C486.031,463.83 485.438,464.866 485.052,465.433C484.106,466.821 482.821,467.948 481.606,469.107C476.949,473.552 471.791,477.454 467.157,481.923C429.496,514.956 391.823,545.567 351.377,575.106C291.942,618.527 229.783,660.972 168.833,702.242C144.268,719.339 120.034,737.233 93.404,751.064C93.404,751.064 98.62,744.889 99.354,742.969C99.428,742.775 99.808,742.542 99.808,742.542Z" fill="#000"/>
        </g>
        <g id="path4190" transform="matrix(0.0781624,0,0,0.0781624,18.3643,-8.98317)">
            <path d="M232.789,759.693C259.689,749.476 286.839,737.863 311.723,723.407C315.575,721.169 326.143,714.473 329.853,712.006C374.512,683.169 408.878,653.777 448.921,618.823C456.357,612.332 463.61,605.635 470.954,599.041C496.56,575.482 519.623,549.312 540.167,521.253C549.58,508.396 551.602,504.935 559.809,492.292C561.916,488.869 564.129,485.509 566.129,482.023C567.337,479.917 568.532,477.786 569.426,475.529C569.596,475.1 569.303,474.615 569.242,474.158C575.72,471.682 581.809,465.767 588.678,466.729C592.796,467.305 582.76,472.578 579.967,475.659C575.244,480.87 570.749,486.282 566.139,491.594C524.449,541.87 490.952,598.467 454.945,652.804C433.336,685.706 410.358,717.39 389.911,751.036C381.279,765.24 377.4,772.18 369.375,786.162C360.78,801.391 336.74,840.925 328.005,856.076C325.947,860.038 323.302,863.638 321.263,867.605C315.443,879.611 320.774,876.319 296.261,885.889C295.202,886.302 295.451,883.765 295.046,882.703C292.625,862.292 294.498,826.031 295.756,802.117C296.153,794.575 292.499,782.003 295.462,774.658C299.651,764.275 323.23,756.585 325.688,755.612C328.732,754.407 332.235,755.488 335.509,755.426C358.527,755.944 394.416,758.554 417.491,757.65C438.023,756.845 442.724,754.716 462.963,750.023C483.557,742.161 491.727,735.108 510.184,721.879C513.861,719.243 517.16,720.073 520.383,716.898C528.482,708.92 537.199,701.573 545.135,693.432C565.377,672.668 571.53,663.626 589.407,640.925C617.138,603.516 669.283,504.781 663.653,510.835C655.984,519.079 648.639,528.618 641.132,537.01C601.75,582.64 557.048,655.321 526.181,707.039C509.615,734.795 500.852,750.159 485.675,778.311C467.045,813.481 450.233,849.531 434.873,886.23L414.577,895.499C432.989,858.18 447.735,820.033 467.761,783.543C481.281,759.267 497.587,732.35 511.834,708.621C542.318,657.845 583.569,586.641 621.101,540.785C621.975,539.742 653.883,504.511 658.635,500.479C668.049,492.492 678.206,485.329 688.801,478.991C690.577,477.929 693.386,477.432 695.003,478.723C698.747,481.712 640.402,520.451 682.508,496.002C658.296,537.409 631.058,594.595 602.519,633.221C584.339,656.414 584.409,658.981 563.983,680.315C556.246,688.396 546.63,698.284 537.912,705.295C523.7,716.723 491.331,743.468 471.886,752.663C463.998,756.392 455.555,758.811 447.389,761.885C426.427,766.678 422.202,768.672 400.961,769.603C377.245,770.642 340.62,768.198 316.903,769.14C313.552,769.533 305.395,773.363 306.849,770.318C309.32,765.143 316.067,763.457 321.007,760.545C322.55,759.635 318.027,762.714 317.124,764.261C313.36,770.706 312.368,786.859 311.88,793.786C310.449,814.122 311.4,845.179 315.977,864.559C318.416,873.378 317.702,872.107 295.821,884.115C295.43,884.33 296.178,883.296 296.33,882.877C296.926,881.233 297.402,879.543 298.344,878.044C300.225,873.656 303.191,870.07 305.625,865.985C315.509,850.4 336.779,811.439 346.296,795.631C353.134,784.42 362.437,770.71 369.376,759.758C390.757,726.013 413.216,692.961 435.274,659.661C470.991,606.255 507.901,550.54 547.222,499.643C551.168,494.581 555.083,489.495 559.061,484.457C561.317,481.599 562.877,477.954 565.923,475.957C573.965,470.685 582.797,466.628 591.721,463.045C592.623,462.682 591.463,465.009 591.026,465.877C589.037,469.824 581.25,481.173 579.608,483.635C552.602,522.71 523.078,560.172 487.773,592.181C480.355,598.823 473.025,605.565 465.518,612.106C425.397,647.063 382.992,679.505 338.425,708.589C324.371,717.079 310.446,725.785 296.263,734.058C269.621,749.599 241.75,763.247 213.205,774.906L232.788,759.692L232.789,759.693Z" fill="#000"/>
        </g>
    </g>
</svg>
